<?xml version="1.0" encoding="utf-8"?>
<!-- Generator: Adobe Illustrator 26.0.3, SVG Export Plug-In . SVG Version: 6.00 Build 0)  -->
<svg version="1.0" id="Layer_1" xmlns="http://www.w3.org/2000/svg" xmlns:xlink="http://www.w3.org/1999/xlink" x="0px" y="0px"
	 viewBox="0 0 1106.8 863.7" style="enable-background:new 0 0 1106.8 863.7;" xml:space="preserve">
<path d="M181.9,117.8c39.4-1.1,81.6-4.9,117.7,14.4c20.9,11.2,28.4,35.2,34.2,56.5c20.3,77.5,7.9,158.5,20.4,236.9
	c3.7,33,26.5,62.1,56.1,76.2c29.2,14.5,61.8,19,93.8,22.6c0.1-106,0.1-211.9,0-317.9c0-19.8-3.8-42.8-21.7-54.4
	c-20.7-9.5-44.4-8.8-66.6-10.3c0-8.5,0-16.9,0.1-25.3c91.6-0.1,183.3-0.1,274.9,0c0.1,8.4,0.1,16.8,0.1,25.2
	c-22.4,1.6-46.2,0.7-66.9,10.4c-19.3,12.9-21.7,38.2-21.5,59.5c0,104.3,0,208.5,0.1,312.8c45.5-5.4,97.7-12.3,128.6-50
	c19.1-20.7,22.2-49.8,25.1-76.6c6.4-76.7-2.8-156.3,23.3-230.2c5.8-18.6,20-34.5,38.8-40.7c33.8-13.4,70.9-10.1,106.5-9.2
	c0,7.8,0.1,15.7,0.1,23.5c-18.8,1.6-45-6.7-56.8,12.8c-11.1,21.2-8.6,46-9.1,69.1c-0.6,71.2,5.7,146.1-25.6,212.4
	c-13.6,29.2-34.1,56.8-63.8,71c-52,26-110.3,34.7-167.1,43.4c0.2,35.8-0.7,71.7,0.4,107.5c0.8,24.2,8.9,51.9,31.8,64
	c21,6.9,43.4,6.9,65.2,7.8V747c-97.7,0.1-195.3,0.1-293,0v-17.6c31.7-1.8,75.6,2.2,89-34.4c16-46.4,5.4-96.8,8.4-144.9
	c-56.8-8.7-114.9-17.3-166.8-43.2c-40.8-20-64.1-62.8-76.6-104.7c-21.1-70.9-9.6-145.6-14.1-218.3c-1.6-13.9-4.3-30-16.4-38.8
	c-15.2-6.5-32.4-3.2-48.5-3.8C181.9,133.5,181.9,125.7,181.9,117.8z" fill="#0000"/>
</svg>
